# xmcd CD database file
#
# Track frame offsets:
#	150
#	18749
#	35241
#	52953
#	71537
#	88028
#
# Disc length: 1408 seconds
#
# Revision: 3
# Processed by: cddbd v1.5.2PL0 Copyright (c) Steve Scherf et al.
# Submitted via: CDex 1.51
#
DISCID=4e057e06
DTITLE=NMB48 - ナギイチ -Type-B-
DYEAR=2012
DGENRE=Blues
TTITLE0=ナギイチ
TTITLE1=理不尽ボール/アンダーガールズ
TTITLE2=僕がもう少し大胆なら/紅組
TTITLE3=ナギイチ -off vocal ver.-
TTITLE4=理不尽ボール/アンダーガールズ -off vocal ver.-
TTITLE5=僕がもう少し大胆なら/紅組 -off vocal ver.-
EXTD=YEAR: 2012
EXTT0=
EXTT1=
EXTT2=
EXTT3=
EXTT4=
EXTT5=
PLAYORDER=
